<svg width="257" height="58" viewBox="0 0 257 58" fill="none" xmlns="http://www.w3.org/2000/svg">
<path fill-rule="evenodd" clip-rule="evenodd" d="M33.6946 4.48099C33.9419 2.27135 32.3754 0.276077 30.1658 0.0287295C27.9561 -0.235108 25.9609 1.34792 25.7135 3.55755C25.4167 6.0805 25.8289 9.09814 26.3566 12.1982C27.8242 12.6435 29.2423 13.2866 30.5615 14.0451C31.9797 10.6977 33.3648 7.3832 33.6946 4.48099ZM49.2115 14.177C48.3376 12.1323 45.963 11.2088 43.9183 12.0828C41.2305 13.2536 38.4437 15.5457 35.6404 17.9037C36.6957 18.9426 37.6851 20.1134 38.5261 21.3831C41.7087 20.9873 44.7593 20.5091 47.1173 19.4867C49.1621 18.5798 50.102 16.2053 49.2115 14.177ZM42.4342 3.39266C40.6533 2.07347 38.1304 2.43625 36.8112 4.21715C34.7994 6.92148 33.4472 10.9615 31.9797 14.9026C32.4743 15.2324 32.9361 15.5622 33.3813 15.9084C33.7111 16.1723 34.0574 16.4526 34.4037 16.7329C37.7676 14.1935 41.2634 11.72 43.2752 9.01569C44.5944 7.23479 44.2151 4.71184 42.4342 3.39266Z" fill="white"/>
<path d="M34.7829 35.6798C33.5462 37.0154 32.227 38.2522 30.8254 39.4559C28.8631 41.1544 26.8678 42.8034 24.8396 44.3864C22.6629 43.0507 21.0964 42.3746 20.8325 42.7209C20.6017 43.0342 21.5086 44.1885 23.1411 45.6891C17.6665 49.7621 11.8786 53.3569 5.66189 56.3085C4.68899 56.7703 3.66662 57.1001 2.66074 57.4628C2.3969 57.5618 2.11658 57.5618 2.00115 57.5783C0.418123 57.7596 -0.0600824 57.3309 0.005877 55.8798C0.203755 51.3616 1.60539 47.1237 3.0565 42.9023C3.45225 41.748 3.8645 40.5937 4.29323 39.4394C6.48638 40.7751 8.05292 41.4677 8.31676 41.1214C8.59708 40.7421 7.2779 39.2251 5.06826 37.3287C6.65128 33.2393 8.41569 29.2157 10.4934 25.3571C14.6489 28.4407 18.3426 30.469 18.7548 29.9083C19.1671 29.3477 16.1164 26.363 11.9115 23.2464L11.7302 23.1145C12.4557 21.8778 13.2142 20.641 14.0222 19.4373C15.0281 17.9202 16.2649 16.5351 17.4851 15.1829C19.1176 13.3855 21.2283 12.7754 23.5863 13.303C31.1387 14.985 36.3825 19.3218 38.8559 26.7588C39.3506 28.2758 38.9054 29.7599 38.1304 31.1286C37.6027 32.052 37.0256 32.926 36.3825 33.7504C32.3919 30.8317 28.9291 28.9519 28.5333 29.4796C28.154 30.0072 30.9078 32.7281 34.7829 35.6798Z" fill="white"/>
<path d="M75.8952 43.8266C73.673 43.8266 71.7527 43.3677 70.1343 42.4498C68.516 41.5319 67.272 40.2155 66.4024 38.5005C65.5329 36.7856 65.0981 34.7566 65.0981 32.4136C65.0981 29.8049 65.6174 27.5464 66.6561 25.6382C67.6947 23.73 69.1802 22.2687 71.1126 21.2542C73.0449 20.2155 75.3276 19.6962 77.9604 19.6962C78.9024 19.6962 79.9049 19.7687 80.9677 19.9136C82.0305 20.0344 82.9363 20.1672 83.685 20.3121C84.4338 20.4571 84.9169 20.5537 85.1343 20.602L85.3879 21.073C85.3396 21.2179 85.2551 21.5923 85.1343 22.1962C85.0135 22.7759 84.8807 23.5609 84.7358 24.5513C84.615 25.5174 84.5184 26.5561 84.4459 27.6672L80.9677 27.9208C80.9918 27.8242 81.016 27.5947 81.0401 27.2324C81.0643 26.8701 81.0763 26.4353 81.0763 25.9281C81.0763 24.9136 80.7623 24.201 80.1343 23.7904C79.5305 23.3556 78.516 23.1382 77.0908 23.1382C74.8928 23.1382 73.2503 23.8025 72.1633 25.131C71.0763 26.4353 70.5329 28.4522 70.5329 31.1817C70.5329 34.1527 71.0763 36.4595 72.1633 38.102C73.2744 39.7203 74.8082 40.5295 76.7648 40.5295C77.4169 40.5295 78.0087 40.4571 78.5401 40.3121C79.0715 40.1672 79.4821 40.0223 79.772 39.8774C80.086 39.7083 80.2792 39.5996 80.3517 39.5513V36.1092C80.3517 35.4088 80.243 34.9498 80.0256 34.7324C79.8082 34.4909 79.3735 34.3701 78.7213 34.3701H76.8372L76.6561 34.0803L77.0184 31.5078C77.5981 31.5078 78.0933 31.5199 78.5039 31.544C79.8565 31.5923 81.0401 31.6165 82.0546 31.6165C82.8034 31.6165 83.5401 31.5923 84.2648 31.544C84.9894 31.4957 85.4604 31.4595 85.6778 31.4353L85.9314 32.8121C85.5208 33.0778 85.2068 33.416 84.9894 33.8266C84.7962 34.2131 84.6633 34.7807 84.5908 35.5295C84.5184 36.2542 84.4821 37.329 84.4821 38.7542C84.4821 40.2034 84.5667 41.2542 84.7358 41.9063L84.4097 42.3411C84.4097 42.3653 83.9991 42.5102 83.1778 42.7759C82.3807 43.0416 81.3421 43.2832 80.0619 43.5005C78.8058 43.7179 77.4169 43.8266 75.8952 43.8266ZM103.478 43.8266C102.077 43.8266 100.978 42.9571 100.181 41.2179L97.7538 36.4716H95.7248L95.6886 39.2614C95.6886 39.9136 95.7369 40.3846 95.8335 40.6745C95.9301 40.9402 96.1113 41.1213 96.377 41.2179C96.6668 41.3146 97.1499 41.3749 97.8262 41.3991L97.9712 41.5803L97.6451 43.5005C97.2586 43.4764 96.5702 43.4522 95.5799 43.4281C94.6137 43.4281 93.7683 43.4281 93.0436 43.4281C92.2707 43.4281 91.4736 43.4522 90.6523 43.5005C89.8311 43.5489 89.2997 43.5851 89.0581 43.6092L89.3117 41.5078C90.133 41.4112 90.6765 41.2059 90.9422 40.8918C91.232 40.5537 91.377 39.986 91.377 39.1889L91.4132 28.573C91.4132 28.0658 91.3407 27.7276 91.1958 27.5585C91.075 27.3653 90.8456 27.2687 90.5074 27.2687L89.4567 27.3049L89.2393 27.0513L89.5291 25.2034L93.3697 25.2397C94.2151 25.2397 95.1209 25.2276 96.0871 25.2034C97.0533 25.1551 97.7296 25.1189 98.1161 25.0947C100.507 25.0947 102.331 25.5174 103.587 26.3629C104.843 27.2083 105.471 28.4402 105.471 30.0585C105.471 31.1696 105.133 32.1841 104.457 33.102C103.78 34.0199 102.802 34.7928 101.522 35.4208L103.949 39.1527C104.529 39.9981 105.073 40.6141 105.58 41.0005C106.087 41.387 106.631 41.5803 107.21 41.5803L107.464 41.9063L107.21 43.5368L103.478 43.8266ZM98.4059 33.9353C100.024 33.3556 100.833 32.2445 100.833 30.602C100.833 29.6358 100.483 28.9232 99.7828 28.4643C99.0823 27.9812 98.0074 27.7397 96.5581 27.7397C96.3649 27.7397 96.232 27.788 96.1596 27.8846C96.1113 27.9571 96.075 28.1261 96.0509 28.3918C95.9059 30.3725 95.8335 32.1237 95.8335 33.6455L98.4059 33.9353ZM109.338 41.5803C110.159 41.4836 110.714 41.2662 111.004 40.9281C111.294 40.5658 111.439 39.9619 111.439 39.1165L111.475 28.7904C111.475 28.1865 111.415 27.788 111.294 27.5947C111.173 27.3774 110.92 27.2687 110.533 27.2687L109.664 27.3049L109.446 27.015L109.7 25.1672C110.086 25.1672 110.823 25.1793 111.91 25.2034C113.021 25.2276 114.205 25.2397 115.461 25.2397C119.736 25.2397 122.78 25.131 124.591 24.9136L124.845 25.2397C124.772 25.5537 124.652 26.2421 124.482 27.3049C124.338 28.3435 124.229 29.4184 124.156 30.5295L121.149 30.7107C121.149 30.6382 121.161 30.4933 121.185 30.2759C121.209 30.0344 121.222 29.8049 121.222 29.5875C121.222 29.0561 121.137 28.6817 120.968 28.4643C120.799 28.2469 120.473 28.102 119.99 28.0295C119.507 27.9329 118.709 27.8846 117.598 27.8846C116.946 27.8846 116.536 27.9329 116.366 28.0295C116.222 28.1261 116.137 28.3677 116.113 28.7542L115.932 32.8484H118.613C119.048 32.8484 119.664 32.8242 120.461 32.7759C121.258 32.7034 121.789 32.6551 122.055 32.631L122.345 32.9571L121.91 35.5658C121.644 35.5658 121.137 35.5537 120.388 35.5295C119.664 35.5054 118.891 35.4933 118.069 35.4933C117.417 35.4933 116.668 35.5537 115.823 35.6745C115.775 36.8339 115.751 38.0174 115.751 39.2252C115.751 39.7566 115.787 40.131 115.859 40.3484C115.932 40.5658 116.089 40.7228 116.33 40.8194C116.572 40.8918 116.982 40.9281 117.562 40.9281C118.77 40.9281 119.652 40.8556 120.207 40.7107C120.763 40.5416 121.161 40.2517 121.403 39.8411C121.644 39.4063 121.838 38.7059 121.982 37.7397L124.736 37.5223L125.026 37.8484C124.953 38.1382 124.821 38.8146 124.627 39.8774C124.458 40.9402 124.313 42.0633 124.193 43.2469L123.866 43.573C123.263 43.5489 121.946 43.5126 119.917 43.4643C117.912 43.416 116.101 43.3918 114.482 43.3918C113.347 43.3918 112.248 43.4281 111.185 43.5005C110.123 43.5972 109.434 43.6575 109.12 43.6817L109.338 41.5803ZM127.878 41.5803C128.699 41.4836 129.255 41.2662 129.545 40.9281C129.835 40.5658 129.979 39.9619 129.979 39.1165L130.016 28.7904C130.016 28.1865 129.955 27.788 129.835 27.5947C129.714 27.3774 129.46 27.2687 129.074 27.2687L128.204 27.3049L127.987 27.015L128.24 25.1672C128.627 25.1672 129.364 25.1793 130.45 25.2034C131.562 25.2276 132.745 25.2397 134.001 25.2397C138.277 25.2397 141.32 25.131 143.132 24.9136L143.385 25.2397C143.313 25.5537 143.192 26.2421 143.023 27.3049C142.878 28.3435 142.769 29.4184 142.697 30.5295L139.69 30.7107C139.69 30.6382 139.702 30.4933 139.726 30.2759C139.75 30.0344 139.762 29.8049 139.762 29.5875C139.762 29.0561 139.678 28.6817 139.508 28.4643C139.339 28.2469 139.013 28.102 138.53 28.0295C138.047 27.9329 137.25 27.8846 136.139 27.8846C135.487 27.8846 135.076 27.9329 134.907 28.0295C134.762 28.1261 134.678 28.3677 134.653 28.7542L134.472 32.8484H137.153C137.588 32.8484 138.204 32.8242 139.001 32.7759C139.798 32.7034 140.33 32.6551 140.595 32.631L140.885 32.9571L140.451 35.5658C140.185 35.5658 139.678 35.5537 138.929 35.5295C138.204 35.5054 137.431 35.4933 136.61 35.4933C135.958 35.4933 135.209 35.5537 134.364 35.6745C134.315 36.8339 134.291 38.0174 134.291 39.2252C134.291 39.7566 134.327 40.131 134.4 40.3484C134.472 40.5658 134.629 40.7228 134.871 40.8194C135.112 40.8918 135.523 40.9281 136.103 40.9281C137.31 40.9281 138.192 40.8556 138.748 40.7107C139.303 40.5416 139.702 40.2517 139.943 39.8411C140.185 39.4063 140.378 38.7059 140.523 37.7397L143.277 37.5223L143.566 37.8484C143.494 38.1382 143.361 38.8146 143.168 39.8774C142.999 40.9402 142.854 42.0633 142.733 43.2469L142.407 43.573C141.803 43.5489 140.487 43.5126 138.458 43.4643C136.453 43.416 134.641 43.3918 133.023 43.3918C131.888 43.3918 130.789 43.4281 129.726 43.5005C128.663 43.5972 127.975 43.6575 127.661 43.6817L127.878 41.5803ZM160.839 28.4643C160.815 28.0054 160.73 27.6914 160.585 27.5223C160.44 27.3532 160.199 27.2687 159.861 27.2687H158.846L158.737 27.015L158.919 25.131C159.208 25.1551 159.752 25.1793 160.549 25.2034C161.346 25.2276 162.155 25.2397 162.977 25.2397C163.774 25.2397 164.522 25.2276 165.223 25.2034C165.923 25.1551 166.394 25.1189 166.636 25.0947L166.491 27.16C165.839 27.2566 165.368 27.4377 165.078 27.7034C164.812 27.9691 164.667 28.3798 164.643 28.9353L164.208 43.6817L160.621 44.044C158.786 41.3387 157.059 38.8749 155.44 36.6527C153.846 34.4063 152.832 32.9812 152.397 32.3774H152.071V40.0947C152.071 40.602 152.143 40.9522 152.288 41.1455C152.457 41.3387 152.735 41.4353 153.121 41.4353C153.339 41.4353 153.568 41.4232 153.81 41.3991C154.076 41.3749 154.257 41.3629 154.353 41.3629L154.535 41.544L154.208 43.5005C153.919 43.5005 153.375 43.4764 152.578 43.4281C151.781 43.4039 150.996 43.3918 150.223 43.3918C149.522 43.3918 148.762 43.416 147.94 43.4643C147.143 43.5368 146.624 43.5851 146.382 43.6092L146.636 41.544C147.24 41.4716 147.675 41.3025 147.94 41.0368C148.206 40.7711 148.351 40.3484 148.375 39.7687L148.774 28.9716C148.774 28.3677 148.617 27.9571 148.303 27.7397C147.989 27.4981 147.349 27.317 146.382 27.1962L146.129 26.9063L146.346 25.0947C146.564 25.1189 147.059 25.1551 147.832 25.2034C148.605 25.2276 149.317 25.2397 149.969 25.2397C150.67 25.2397 151.31 25.2276 151.89 25.2034C152.469 25.1793 152.856 25.1551 153.049 25.131C154.547 27.474 156.056 29.7324 157.578 31.9063C159.124 34.0561 160.126 35.4329 160.585 36.0368H160.911L160.839 28.4643ZM180.842 43.9716C179.031 38.2228 177.147 32.5706 175.19 27.015H174.9C174.9 27.2807 174.852 28.1624 174.755 29.66C174.659 31.1575 174.574 32.4015 174.502 33.3918C174.212 37.4498 174.067 39.6358 174.067 39.9498C174.067 40.7228 174.453 41.1092 175.226 41.1092L176.458 41.073L176.676 41.2542L176.277 43.5368C174.248 43.4402 172.835 43.3918 172.038 43.3918C171.482 43.3918 170.806 43.4281 170.009 43.5005C169.236 43.573 168.717 43.6334 168.451 43.6817L168.668 41.3266C169.369 41.2542 169.876 41.0368 170.19 40.6745C170.504 40.288 170.734 39.6358 170.878 38.7179C171.096 36.8339 171.386 34.0199 171.748 30.2759C172.135 26.5319 172.328 24.4788 172.328 24.1165C172.328 23.4643 172.135 23.0174 171.748 22.7759C171.386 22.5344 170.661 22.3653 169.574 22.2687L169.393 22.0513L169.719 19.9498C171.7 20.0706 173.209 20.131 174.248 20.131C174.779 20.131 176.06 20.0827 178.089 19.986C179.055 23.3918 180.395 27.8242 182.11 33.2831L182.726 35.1672H183.016C183.161 34.6841 183.354 34.0803 183.596 33.3556C183.837 32.6068 184.091 31.8097 184.357 30.9643C185.589 27.2928 186.76 23.6696 187.871 20.0947C188.378 20.0947 188.789 20.1068 189.103 20.131L191.023 20.1672L192.147 20.131C192.654 20.131 193.306 20.1068 194.103 20.0585C194.9 20.0102 195.48 19.9619 195.842 19.9136L195.987 20.0585L195.77 22.2324C194.731 22.329 194.019 22.5102 193.632 22.7759C193.27 23.0416 193.089 23.5005 193.089 24.1527C193.089 24.9015 193.185 26.8097 193.378 29.8774C193.572 32.9208 193.765 35.5537 193.958 37.7759C194.103 39.1044 194.284 39.9981 194.502 40.4571C194.743 40.8918 195.154 41.1092 195.734 41.1092C195.999 41.1092 196.217 41.0972 196.386 41.073C196.579 41.0489 196.7 41.0368 196.748 41.0368L196.893 41.2179L196.567 43.5005C196.205 43.5005 195.878 43.4885 195.589 43.4643C194.526 43.416 193.632 43.3918 192.907 43.3918C192.207 43.3918 191.277 43.4281 190.118 43.5005C188.982 43.573 188.197 43.6334 187.763 43.6817L188.016 41.3266C188.741 41.23 189.26 41.0489 189.574 40.7831C189.888 40.4933 190.045 40.0706 190.045 39.515C190.045 39.4184 189.949 37.9208 189.755 35.0223C189.49 31.23 189.333 28.5609 189.284 27.015H188.958C186.929 32.6672 185.045 38.2107 183.306 43.6455L180.842 43.9716ZM208.082 43.3918L208.227 41.5078C208.928 41.4353 209.423 41.3749 209.713 41.3266C210.002 41.2542 210.196 41.1575 210.292 41.0368C210.413 40.916 210.473 40.7348 210.473 40.4933C210.473 40.2276 210.425 39.9498 210.328 39.66L209.821 37.7759C209.314 37.7517 208.432 37.7397 207.176 37.7397C206.621 37.7397 205.703 37.8001 204.423 37.9208L203.771 39.8049C203.674 40.1672 203.626 40.4329 203.626 40.602C203.626 40.916 203.71 41.1334 203.879 41.2542C204.072 41.3508 204.423 41.3991 204.93 41.3991H206.053L206.234 41.6527L206.017 43.5368C205.727 43.5126 205.111 43.4764 204.169 43.4281C203.251 43.4039 202.394 43.3918 201.597 43.3918C200.751 43.3918 199.978 43.4039 199.278 43.4281C198.601 43.4522 198.155 43.4643 197.937 43.4643L198.155 41.4353C198.589 41.3629 198.94 41.1938 199.205 40.9281C199.495 40.6382 199.761 40.2155 200.002 39.66L205.22 25.3846L210.546 24.9136L210.908 25.131C211.198 26.2179 211.814 28.4402 212.756 31.7976C213.698 35.1551 214.471 37.7276 215.075 39.515C215.268 40.1672 215.522 40.6382 215.836 40.9281C216.174 41.2179 216.657 41.387 217.285 41.4353L217.43 41.6527L217.213 43.4643C216.947 43.4643 216.44 43.4522 215.691 43.4281C214.966 43.4039 214.217 43.3918 213.444 43.3918C212.357 43.3918 211.295 43.416 210.256 43.4643C209.217 43.5368 208.553 43.5851 208.263 43.6092L208.082 43.3918ZM207.176 35.2034C207.973 35.2034 208.674 35.1672 209.278 35.0947L207.647 29.2252H207.213L205.22 35.2034H207.176ZM233.298 43.8266C231.897 43.8266 230.798 42.9571 230 41.2179L227.573 36.4716H225.544L225.508 39.2614C225.508 39.9136 225.556 40.3846 225.653 40.6745C225.749 40.9402 225.93 41.1213 226.196 41.2179C226.486 41.3146 226.969 41.3749 227.645 41.3991L227.79 41.5803L227.464 43.5005C227.078 43.4764 226.389 43.4522 225.399 43.4281C224.433 43.4281 223.587 43.4281 222.863 43.4281C222.09 43.4281 221.293 43.4522 220.471 43.5005C219.65 43.5489 219.119 43.5851 218.877 43.6092L219.131 41.5078C219.952 41.4112 220.496 41.2059 220.761 40.8918C221.051 40.5537 221.196 39.986 221.196 39.1889L221.232 28.573C221.232 28.0658 221.16 27.7276 221.015 27.5585C220.894 27.3653 220.665 27.2687 220.327 27.2687L219.276 27.3049L219.058 27.0513L219.348 25.2034L223.189 25.2397C224.034 25.2397 224.94 25.2276 225.906 25.2034C226.872 25.1551 227.549 25.1189 227.935 25.0947C230.327 25.0947 232.15 25.5174 233.406 26.3629C234.662 27.2083 235.29 28.4402 235.29 30.0585C235.29 31.1696 234.952 32.1841 234.276 33.102C233.599 34.0199 232.621 34.7928 231.341 35.4208L233.769 39.1527C234.348 39.9981 234.892 40.6141 235.399 41.0005C235.906 41.387 236.45 41.5803 237.029 41.5803L237.283 41.9063L237.029 43.5368L233.298 43.8266ZM228.225 33.9353C229.843 33.3556 230.653 32.2445 230.653 30.602C230.653 29.6358 230.302 28.9232 229.602 28.4643C228.901 27.9812 227.827 27.7397 226.377 27.7397C226.184 27.7397 226.051 27.788 225.979 27.8846C225.93 27.9571 225.894 28.1261 225.87 28.3918C225.725 30.3725 225.653 32.1237 225.653 33.6455L228.225 33.9353ZM241.331 41.5078C242.248 41.4353 242.913 41.3266 243.323 41.1817C243.734 41.0126 244 40.759 244.12 40.4208C244.265 40.0585 244.338 39.4909 244.338 38.7179V27.7759C243.372 27.8001 242.671 27.8967 242.236 28.0658C241.826 28.2348 241.524 28.5609 241.331 29.044C241.137 29.5271 240.968 30.3484 240.823 31.5078L238.07 31.6889C238.094 31.2783 238.142 30.4088 238.215 29.0803C238.311 27.7276 238.372 26.4595 238.396 25.2759L238.758 24.9136L241.838 25.2397H251.186L254.338 24.9136L254.7 25.2759C254.724 26.5078 254.76 27.7638 254.809 29.044C254.881 30.3242 254.93 31.1455 254.954 31.5078L252.2 31.6889C252.055 30.4329 251.886 29.5513 251.693 29.044C251.524 28.5368 251.246 28.2107 250.86 28.0658C250.473 27.8967 249.821 27.8001 248.903 27.7759C248.71 30.5295 248.613 34.4063 248.613 39.4063C248.613 40.1068 248.734 40.602 248.975 40.8918C249.217 41.1817 249.64 41.3266 250.244 41.3266C250.63 41.3266 250.968 41.3146 251.258 41.2904C251.548 41.2662 251.729 41.2542 251.802 41.2542L251.91 41.3991L251.657 43.5368C251.246 43.5126 250.497 43.4764 249.41 43.4281C248.323 43.4039 247.285 43.3918 246.294 43.3918C245.594 43.3918 244.652 43.416 243.468 43.4643C242.285 43.5368 241.5 43.5851 241.113 43.6092L241.331 41.5078Z" fill="white"/>
</svg>
